<svg width="1440" height="900" viewBox="0 0 1440 900" fill="none" xmlns="http://www.w3.org/2000/svg">
<g opacity="0.6" filter="url(#filter0_f_57_644)">
<ellipse cx="610.5" cy="701" rx="578.5" ry="386" fill="#5E19F0"/>
</g>
<g opacity="0.6" filter="url(#filter1_f_57_644)">
<circle cx="163" cy="851.001" r="386" fill="#3719F0"/>
</g>
<g filter="url(#filter2_f_57_644)">
<path d="M408.341 643.087C219.706 641.559 -29.2631 720.987 2.8126 1183.81C528.753 1214.87 1588.58 1276.37 1620.35 1273.93C1660.06 1270.87 1964.78 862.277 1976.23 850.821C1987.69 839.366 2038.86 735.498 1710.46 468.192C1382.07 200.887 1104.84 406.521 912.389 541.51C719.935 676.5 596.977 644.614 408.341 643.087Z" fill="#6849E1"/>
</g>
<mask id="mask0_57_644" style="mask-type:alpha" maskUnits="userSpaceOnUse" x="847" y="322" width="854" height="740">
<ellipse cx="1273.81" cy="692.133" rx="484.544" ry="289.781" transform="rotate(-36.2854 1273.81 692.133)" fill="url(#paint0_radial_57_644)"/>
</mask>
<g mask="url(#mask0_57_644)">
<path d="M849.486 951.24C789.038 974.441 775.756 998.208 740 1053.91L1321.84 1270.07C1470.09 1044.51 1727.05 612.562 1625.02 571.727C1518.25 528.998 1355.49 546.795 1255.67 595.708C1155.85 644.62 1075.4 807.922 1037.61 866.04C1002.6 919.886 909.934 928.039 849.486 951.24Z" fill="#7C7AEA"/>
<g filter="url(#filter3_f_57_644)">
<path d="M849.486 950.24C789.038 973.441 775.756 997.208 740 1052.91L1321.84 1269.07C1470.09 1043.51 1690.53 545.835 1588.5 505C1507.82 472.71 1361.17 550.323 1286 594.921C1261.7 609.339 1278.89 625.68 1263.67 626.707C1152.76 634.194 1075.4 806.922 1037.61 865.04C1002.6 918.886 909.934 927.039 849.486 950.24Z" fill="#7C7AEA"/>
</g>
<g filter="url(#filter4_f_57_644)">
<path d="M833.486 943.24C773.038 966.441 759.756 990.208 724 1045.91L1321.84 1270.07C1470.09 1044.51 1599.05 588.562 1497.02 547.727C1401.31 509.423 1345.89 554.902 1268.5 599.346C1259.56 604.481 1274 606.642 1263.67 611.708C1163.85 660.62 1059.4 799.922 1021.61 858.04C986.597 911.886 893.934 920.039 833.486 943.24Z" fill="#7C7AEA"/>
</g>
<g filter="url(#filter5_f_57_644)">
<path d="M817.486 935.24C757.038 958.441 743.756 982.208 708 1037.91L1321.84 1270.07C1470.09 1044.51 1751.05 532.563 1649.02 491.727C1562.9 457.262 1410.55 540.995 1316 577.906C1293.33 586.756 1279.97 604.248 1260.67 613.708C1160.85 662.62 1043.4 791.922 1005.61 850.04C970.597 903.886 877.934 912.039 817.486 935.24Z" fill="#7C7AEA"/>
</g>
<g filter="url(#filter6_f_57_644)">
<path d="M766.486 913.39C706.038 936.591 692.756 960.358 657 1016.06L1286.84 1264.22C1435.09 1038.66 1564.05 582.714 1462.02 541.878C1382.88 510.208 1322.71 575.372 1285 598.8C1271.83 606.981 1309.6 621 1281 621C1170.5 621 1191.39 737.309 1009.5 814C950.317 838.953 826.934 890.19 766.486 913.39Z" fill="#7C7AEA"/>
</g>
</g>
<g opacity="0.6" filter="url(#filter7_f_57_644)">
<circle cx="1388.5" cy="836.501" r="164.5" fill="#B819F0"/>
</g>
<g opacity="0.3" filter="url(#filter8_f_57_644)">
<ellipse cx="661.5" cy="840.501" rx="368.5" ry="164.5" fill="black"/>
</g>
<g opacity="0.6" filter="url(#filter9_f_57_644)">
<ellipse cx="1005.81" cy="793.081" rx="164.5" ry="48.7174" transform="rotate(-41.2443 1005.81 793.081)" fill="#28009B"/>
</g>
<mask id="mask1_57_644" style="mask-type:alpha" maskUnits="userSpaceOnUse" x="-594" y="393" width="1472" height="975">
<path d="M-380.318 1367.69C-435.28 1050.5 -589.988 573.288 -594 557.715L877.678 393.846L807.651 1159.83L-380.318 1367.69Z" fill="url(#paint1_linear_57_644)"/>
</mask>
<g mask="url(#mask1_57_644)">
<path d="M59.0642 620.701C193.052 597.257 319.092 654.063 331.095 722.661C343.097 791.259 304.61 890.771 160.853 915.924C89.6143 928.389 11.1408 989.379 -79.4736 970.027C-171.716 950.328 -168.495 853.341 -174.549 818.737C-186.552 750.139 -74.9232 644.145 59.0642 620.701Z" fill="#7371FF"/>
<g filter="url(#filter10_f_57_644)">
<path d="M58.4873 626.857C202.186 601.715 316.535 649.491 326.851 708.456C337.168 767.42 296.491 854.287 152.793 879.43C81.5835 891.889 2.28676 947.967 -87.4537 933.407C-178.806 918.585 -173.294 834.738 -178.499 804.993C-188.816 746.029 -85.211 652 58.4873 626.857Z" fill="#7371FF"/>
</g>
<g filter="url(#filter11_f_57_644)">
<path d="M62.8404 626.096C223.898 597.916 353.351 658.836 366.07 731.532C378.79 804.228 334.716 910.26 173.658 938.44C93.8462 952.405 6.95799 1026.62 -94.1994 1007.01C-197.174 987.046 -193.649 877.909 -200.065 841.237C-212.785 768.541 -98.2174 654.276 62.8404 626.096Z" fill="#7371FF"/>
</g>
<g filter="url(#filter12_f_57_644)">
<path d="M82.9346 631.454C284.903 614.493 466.111 679.961 480.998 765.042C495.885 850.124 411.051 959.76 217.895 993.556C122.176 1010.3 15.3531 1124.56 -105.782 1102.09C-229.093 1079.22 -223.073 958.571 -230.583 915.652C-245.469 830.57 -151.034 651.101 82.9346 631.454Z" fill="#7371FF"/>
</g>
<g filter="url(#filter13_f_57_644)">
<path d="M155.955 654.164C363.934 617.774 562.161 696.066 576.716 779.251C591.271 862.435 498.334 971.376 290.355 1007.77C187.291 1025.8 67.7066 1079.44 -61.9898 1059.44C-194.016 1039.08 -185.524 920.67 -192.866 878.707C-207.421 795.522 -52.0247 690.554 155.955 654.164Z" fill="#7371FF"/>
</g>
<g filter="url(#filter14_f_57_644)">
<path d="M242.713 673.205C457.64 635.6 662.286 715.344 677.173 800.425C692.06 885.507 595.851 997.133 380.924 1034.74C274.417 1053.37 150.779 1108.47 16.8261 1088.24C-119.533 1067.65 -110.546 946.486 -118.056 903.567C-132.942 818.485 27.7852 710.811 242.713 673.205Z" fill="#7371FF"/>
</g>
<g filter="url(#filter15_f_57_644)">
<path d="M78.6918 687.96C266.753 655.055 448.271 738.846 463.158 823.927C478.044 909.009 395.873 1018.18 207.812 1051.08C114.618 1067.39 5.42364 1109.82 -112.711 1086.82C-232.969 1063.42 -227.643 942.891 -235.153 899.971C-250.039 814.89 -109.37 720.864 78.6918 687.96Z" fill="#7371FF"/>
</g>
</g>
<defs>
<filter id="filter0_f_57_644" x="-380" y="-96.9997" width="1981" height="1596" filterUnits="userSpaceOnUse" color-interpolation-filters="sRGB">
<feFlood flood-opacity="0" result="BackgroundImageFix"/>
<feBlend mode="normal" in="SourceGraphic" in2="BackgroundImageFix" result="shape"/>
<feGaussianBlur stdDeviation="206" result="effect1_foregroundBlur_57_644"/>
</filter>
<filter id="filter1_f_57_644" x="-635" y="53.0005" width="1596" height="1596" filterUnits="userSpaceOnUse" color-interpolation-filters="sRGB">
<feFlood flood-opacity="0" result="BackgroundImageFix"/>
<feBlend mode="normal" in="SourceGraphic" in2="BackgroundImageFix" result="shape"/>
<feGaussianBlur stdDeviation="206" result="effect1_foregroundBlur_57_644"/>
</filter>
<filter id="filter2_f_57_644" x="-156" y="181.999" width="2298" height="1248" filterUnits="userSpaceOnUse" color-interpolation-filters="sRGB">
<feFlood flood-opacity="0" result="BackgroundImageFix"/>
<feBlend mode="normal" in="SourceGraphic" in2="BackgroundImageFix" result="shape"/>
<feGaussianBlur stdDeviation="78" result="effect1_foregroundBlur_57_644"/>
</filter>
<filter id="filter3_f_57_644" x="720" y="477.351" width="914.56" height="811.722" filterUnits="userSpaceOnUse" color-interpolation-filters="sRGB">
<feFlood flood-opacity="0" result="BackgroundImageFix"/>
<feBlend mode="normal" in="SourceGraphic" in2="BackgroundImageFix" result="shape"/>
<feGaussianBlur stdDeviation="10" result="effect1_foregroundBlur_57_644"/>
</filter>
<filter id="filter4_f_57_644" x="696" y="505.348" width="865.541" height="792.724" filterUnits="userSpaceOnUse" color-interpolation-filters="sRGB">
<feFlood flood-opacity="0" result="BackgroundImageFix"/>
<feBlend mode="normal" in="SourceGraphic" in2="BackgroundImageFix" result="shape"/>
<feGaussianBlur stdDeviation="14" result="effect1_foregroundBlur_57_644"/>
</filter>
<filter id="filter5_f_57_644" x="672" y="447.579" width="1034.83" height="858.493" filterUnits="userSpaceOnUse" color-interpolation-filters="sRGB">
<feFlood flood-opacity="0" result="BackgroundImageFix"/>
<feBlend mode="normal" in="SourceGraphic" in2="BackgroundImageFix" result="shape"/>
<feGaussianBlur stdDeviation="18" result="effect1_foregroundBlur_57_644"/>
</filter>
<filter id="filter6_f_57_644" x="605" y="481.363" width="945.541" height="834.86" filterUnits="userSpaceOnUse" color-interpolation-filters="sRGB">
<feFlood flood-opacity="0" result="BackgroundImageFix"/>
<feBlend mode="normal" in="SourceGraphic" in2="BackgroundImageFix" result="shape"/>
<feGaussianBlur stdDeviation="26" result="effect1_foregroundBlur_57_644"/>
</filter>
<filter id="filter7_f_57_644" x="1012" y="460.001" width="753" height="753" filterUnits="userSpaceOnUse" color-interpolation-filters="sRGB">
<feFlood flood-opacity="0" result="BackgroundImageFix"/>
<feBlend mode="normal" in="SourceGraphic" in2="BackgroundImageFix" result="shape"/>
<feGaussianBlur stdDeviation="106" result="effect1_foregroundBlur_57_644"/>
</filter>
<filter id="filter8_f_57_644" x="81" y="464.001" width="1161" height="753" filterUnits="userSpaceOnUse" color-interpolation-filters="sRGB">
<feFlood flood-opacity="0" result="BackgroundImageFix"/>
<feBlend mode="normal" in="SourceGraphic" in2="BackgroundImageFix" result="shape"/>
<feGaussianBlur stdDeviation="106" result="effect1_foregroundBlur_57_644"/>
</filter>
<filter id="filter9_f_57_644" x="665.985" y="466.58" width="679.643" height="653.001" filterUnits="userSpaceOnUse" color-interpolation-filters="sRGB">
<feFlood flood-opacity="0" result="BackgroundImageFix"/>
<feBlend mode="normal" in="SourceGraphic" in2="BackgroundImageFix" result="shape"/>
<feGaussianBlur stdDeviation="106" result="effect1_foregroundBlur_57_644"/>
</filter>
<filter id="filter10_f_57_644" x="-186.747" y="612.458" width="522.653" height="330.883" filterUnits="userSpaceOnUse" color-interpolation-filters="sRGB">
<feFlood flood-opacity="0" result="BackgroundImageFix"/>
<feBlend mode="normal" in="SourceGraphic" in2="BackgroundImageFix" result="shape"/>
<feGaussianBlur stdDeviation="3.76999" result="effect1_foregroundBlur_57_644"/>
</filter>
<filter id="filter11_f_57_644" x="-227.419" y="592.68" width="621.938" height="443.997" filterUnits="userSpaceOnUse" color-interpolation-filters="sRGB">
<feFlood flood-opacity="0" result="BackgroundImageFix"/>
<feBlend mode="normal" in="SourceGraphic" in2="BackgroundImageFix" result="shape"/>
<feGaussianBlur stdDeviation="13.195" result="effect1_foregroundBlur_57_644"/>
</filter>
<filter id="filter12_f_57_644" x="-269.793" y="591.064" width="790.154" height="551.644" filterUnits="userSpaceOnUse" color-interpolation-filters="sRGB">
<feFlood flood-opacity="0" result="BackgroundImageFix"/>
<feBlend mode="normal" in="SourceGraphic" in2="BackgroundImageFix" result="shape"/>
<feGaussianBlur stdDeviation="18.8499" result="effect1_foregroundBlur_57_644"/>
</filter>
<filter id="filter13_f_57_644" x="-295.6" y="543.217" width="975.582" height="622.414" filterUnits="userSpaceOnUse" color-interpolation-filters="sRGB">
<feFlood flood-opacity="0" result="BackgroundImageFix"/>
<feBlend mode="normal" in="SourceGraphic" in2="BackgroundImageFix" result="shape"/>
<feGaussianBlur stdDeviation="50.8948" result="effect1_foregroundBlur_57_644"/>
</filter>
<filter id="filter14_f_57_644" x="-371.601" y="411.054" width="1302.86" height="934.174" filterUnits="userSpaceOnUse" color-interpolation-filters="sRGB">
<feFlood flood-opacity="0" result="BackgroundImageFix"/>
<feBlend mode="normal" in="SourceGraphic" in2="BackgroundImageFix" result="shape"/>
<feGaussianBlur stdDeviation="126.295" result="effect1_foregroundBlur_57_644"/>
</filter>
<filter id="filter15_f_57_644" x="-353.103" y="563.768" width="934.839" height="646.608" filterUnits="userSpaceOnUse" color-interpolation-filters="sRGB">
<feFlood flood-opacity="0" result="BackgroundImageFix"/>
<feBlend mode="normal" in="SourceGraphic" in2="BackgroundImageFix" result="shape"/>
<feGaussianBlur stdDeviation="58.4348" result="effect1_foregroundBlur_57_644"/>
</filter>
<radialGradient id="paint0_radial_57_644" cx="0" cy="0" r="1" gradientUnits="userSpaceOnUse" gradientTransform="translate(1356.85 645.73) rotate(103.875) scale(346.288 557.278)">
<stop offset="0.120131" stop-color="#C4C4C4"/>
<stop offset="0.692585" stop-color="#C4C4C4" stop-opacity="0"/>
</radialGradient>
<linearGradient id="paint1_linear_57_644" x1="7.79361" y1="660.19" x2="115.536" y2="1179.65" gradientUnits="userSpaceOnUse">
<stop stop-color="#C4C4C4"/>
<stop offset="1" stop-color="#C4C4C4" stop-opacity="0"/>
</linearGradient>
</defs>
</svg>
